<svg fill="none" height="24" viewBox="0 0 105 24" width="105" xmlns="http://www.w3.org/2000/svg"><g fill="#000"><path d="m7.411 21.39-4.054 2.61-.266-1.053c-.187-.744-.086-1.534.282-2.199l2.617-4.729c.387 1.6.848 3.272 1.421 5.371zm13.215-.642-2.646-4.784c-.391 1.656-.803 3.22-1.369 5.441l4.032 2.595.266-1.053c.186-.743.085-1.533-.283-2.199zm-3.626-11.592c-.035 3.267-1.166 7.176-2.347 11.844h-5.273c-1.234-4.534-2.38-8.469-2.38-11.809 0-3.703 1.511-6.688 5-9.191 3.559 2.517 5.04 5.425 5 9.156zm-2.114.578c.114-.328.161-1.187-.063-1.708-1.76.213-3.89.213-5.65 0-.223.521-.176 1.38-.061 1.708.687.195 1.786.292 2.887.292 1.099 0 2.198-.097 2.887-.292zm-1.439 14.266h-2.895l-.552-2h4z"/><path d="m53.806 6.616c-.408.024-.702.072-.882.144s-.306.21-.378.414c-.06.204-.09.534-.09.99v8.928c0 .456.03.786.09.99.072.204.198.342.378.414s.474.12.882.144v.36c-.588-.036-1.5-.054-2.736-.054-1.212 0-2.154.018-2.826.054v-.36c.396-.024.684-.072.864-.144.192-.072.318-.21.378-.414.072-.204.108-.534.108-.99v-4.32h-4.77v4.32c0 .456.03.786.09.99.072.204.198.342.378.414s.474.12.882.144v.36c-.648-.036-1.554-.054-2.718-.054-1.284 0-2.232.018-2.844.054v-.36c.396-.024.684-.072.864-.144.192-.072.318-.21.378-.414.072-.204.108-.534.108-.99v-8.928c0-.456-.036-.786-.108-.99-.06-.204-.186-.342-.378-.414-.18-.072-.468-.12-.864-.144v-.36c.612.036 1.56.054 2.844.054 1.164 0 2.07-.018 2.718-.054v.36c-.408.024-.702.072-.882.144s-.306.21-.378.414c-.06.204-.09.534-.09.99v4.248h4.77v-4.248c0-.456-.036-.786-.108-.99-.06-.204-.186-.342-.378-.414-.18-.072-.468-.12-.864-.144v-.36c.672.036 1.614.054 2.826.054 1.236 0 2.148-.018 2.736-.054zm5.3325 2.826c1.38 0 2.46.396 3.24 1.188.78.78 1.17 2.022 1.17 3.726s-.39 2.946-1.17 3.726-1.86 1.17-3.24 1.17c-1.368 0-2.448-.39-3.24-1.17-.78-.78-1.17-2.022-1.17-3.726s.39-2.946 1.17-3.726c.792-.792 1.872-1.188 3.24-1.188zm0 .36c-.516 0-.93.378-1.242 1.134-.3.744-.45 1.884-.45 3.42s.15 2.676.45 3.42c.312.744.726 1.116 1.242 1.116.528 0 .942-.366 1.242-1.098.3-.744.45-1.89.45-3.438s-.156-2.694-.468-3.438c-.3-.744-.708-1.116-1.224-1.116zm9.0977-.36c.456 0 .876.06 1.26.18.384.108.678.234.882.378.12.084.228.126.324.126.108 0 .198-.054.27-.162.084-.12.138-.288.162-.504h.378c-.048.612-.072 1.668-.072 3.168h-.378c-.108-.792-.348-1.452-.72-1.98-.36-.54-.888-.81-1.584-.81-.36 0-.66.102-.9.306-.228.204-.342.486-.342.846 0 .408.138.762.414 1.062.276.288.708.642 1.296 1.062l.522.378c.732.552 1.272 1.044 1.62 1.476s.522.972.522 1.62c0 .528-.156.996-.468 1.404-.3.408-.708.72-1.224.936s-1.086.324-1.71.324c-.66 0-1.224-.126-1.692-.378-.384-.192-.66-.318-.828-.378-.12-.036-.228.006-.324.126-.084.108-.15.276-.198.504h-.378c.048-.684.072-1.884.072-3.6h.378c.24 2.208 1.05 3.312 2.43 3.312.348 0 .642-.102.882-.306.252-.216.378-.54.378-.972 0-.336-.078-.636-.234-.9-.144-.264-.33-.498-.558-.702s-.57-.486-1.026-.846c-.54-.432-.954-.78-1.242-1.044-.276-.264-.516-.576-.72-.936-.192-.36-.288-.762-.288-1.206 0-.768.3-1.374.9-1.818s1.332-.666 2.196-.666zm8.4045.252h2.124v.36h-2.124v7.272c0 .36.06.618.18.774.132.144.336.216.612.216.516 0 .924-.36 1.224-1.08l.306.162c-.456 1.236-1.278 1.854-2.466 1.854-.792 0-1.392-.204-1.8-.612-.252-.252-.426-.564-.522-.936-.084-.384-.126-.906-.126-1.566v-6.084h-1.512v-.36h1.512v-2.376c.996 0 1.86-.192 2.592-.576zm7.8958 8.082c.984 0 1.776-.48 2.376-1.44l.324.108c-.24.78-.672 1.446-1.296 1.998-.612.54-1.38.81-2.304.81-1.272 0-2.286-.402-3.042-1.206-.744-.816-1.116-2.016-1.116-3.6 0-1.62.402-2.856 1.206-3.708.804-.864 1.872-1.296 3.204-1.296 2.256 0 3.384 1.332 3.384 3.996h-5.058c-.012.18-.018.462-.018.846 0 .792.108 1.452.324 1.98.228.528.516.912.864 1.152.36.24.744.36 1.152.36zm-.756-7.956c-.432 0-.792.27-1.08.81-.276.528-.45 1.35-.522 2.466h2.826c.024-.948-.072-1.728-.288-2.34-.204-.624-.516-.936-.936-.936zm10.6208-.378c.54 0 .948.162 1.224.486s.414.714.414 1.17c0 .444-.132.81-.396 1.098-.252.276-.588.414-1.008.414-.408 0-.732-.102-.972-.306-.24-.216-.36-.498-.36-.846 0-.576.264-1.044.792-1.404-.048-.012-.12-.018-.216-.018-.12 0-.216.012-.288.036-.456.072-.846.348-1.17.828-.312.48-.468.972-.468 1.476v4.77c0 .552.132.936.396 1.152.276.216.708.324 1.296.324v.378c-.168 0-.306-.006-.414-.018-1.224-.036-2.04-.054-2.448-.054-.324 0-1.062.018-2.214.054-.096.012-.216.018-.36.018v-.378c.432 0 .732-.09.9-.27.168-.192.252-.534.252-1.026v-5.67c0-.552-.084-.954-.252-1.206s-.468-.378-.9-.378v-.378c.384.036.756.054 1.116.054 1.068 0 1.944-.084 2.628-.252v1.674c.228-.516.558-.93.99-1.242.432-.324.918-.486 1.458-.486zm8.4027 0c.54 0 .948.162 1.224.486s.414.714.414 1.17c0 .444-.132.81-.396 1.098-.252.276-.588.414-1.008.414-.408 0-.732-.102-.972-.306-.24-.216-.36-.498-.36-.846 0-.576.264-1.044.792-1.404-.048-.012-.12-.018-.216-.018-.12 0-.216.012-.288.036-.456.072-.846.348-1.17.828-.312.48-.468.972-.468 1.476v4.77c0 .552.132.936.396 1.152.276.216.708.324 1.296.324v.378c-.168 0-.306-.006-.414-.018-1.224-.036-2.0403-.054-2.4483-.054-.324 0-1.062.018-2.214.054-.096.012-.216.018-.36.018v-.378c.432 0 .732-.09.9-.27.168-.192.252-.534.252-1.026v-5.67c0-.552-.084-.954-.252-1.206s-.468-.378-.9-.378v-.378c.384.036.756.054 1.116.054 1.068 0 1.944-.084 2.6283-.252v1.674c.228-.516.558-.93.99-1.242.432-.324.918-.486 1.458-.486z"/></g></svg>